<svg fill="none" height="220" viewBox="0 0 690 220" width="690" xmlns="http://www.w3.org/2000/svg"><g fill="#ff6b4e"><path d="m131.993 93.3253c0-12.2381-9.92-22.1583-22.158-22.1583-12.2378 0-22.1587 9.9201-22.1587 22.1583 0 8.5627 4.8655 15.9777 11.9759 19.6667l-8.2122 35.512h36.789l-8.211-35.512c7.109-3.689 11.975-11.104 11.975-19.6667z"/><path d="m196.503 137.762c-4.303 33.414-32.913 59.322-67.479 59.322h-38.3784c-37.5285 0-68.06-30.532-68.06-68.06v-38.3776c0-37.5285 30.5315-68.0601 68.06-68.0601h38.3784c34.566 0 63.175 25.9088 67.479 59.3226h22.737c-4.411-45.8978-43.182-81.9089-90.216-81.9089h-38.3784c-49.9822 0-90.6456 40.6642-90.6456 90.6464v38.3776c0 49.983 40.6635 90.646 90.6456 90.646h38.3784c47.034 0 85.805-36.012 90.216-81.908z"/><path d="m412.498 62.3046h-22.615v105.5214h22.615z"/><path d="m481.076 143.118-28.776-80.8134h-24.288l38.953 105.5214h27.403l38.952-105.5214h-23.879z"/><path d="m571.448 62.3046h-22.615v105.5214h22.615z"/><path d="m666.083 131.304c-3.081 11.557-12.204 18.422-24.681 18.422-17.539 0-29.324-13.846-29.324-34.455 0-20.8544 11.785-34.8659 29.324-34.8659 12.83 0 21.604 6.5377 24.873 18.4227h23.717c-4.842-23.9994-22.316-37.7541-48.18-37.7541-15.655 0-28.953 5.1504-38.459 14.8947-9.49 9.728-14.506 23.3185-14.506 39.3026 0 16.153 4.91 29.725 14.198 39.251 9.273 9.51 22.466 14.536 38.152 14.536 26.061 0 44.194-14.099 48.803-37.754z"/><path d="m347.531 131.304c-3.08 11.557-12.203 18.422-24.681 18.422-17.54 0-29.324-13.846-29.324-34.455 0-20.8544 11.784-34.8659 29.324-34.8659 12.831 0 21.605 6.5377 24.874 18.4227h23.717c-4.844-23.9994-22.317-37.7541-48.18-37.7541-15.655 0-28.953 5.1504-38.46 14.8947-9.489 9.728-14.506 23.3185-14.506 39.3026 0 16.153 4.91 29.725 14.198 39.251 9.273 9.51 22.466 14.536 38.153 14.536 26.062 0 44.194-14.099 48.802-37.754z"/></g></svg>